<svg style="display: none">

<!--Logo-->
    <symbol id="icon-logo" width="144" height="84" viewBox="0 0 144 84" fill="none" xmlns="http://www.w3.org/2000/svg">
        <path d="M1.75 58L8.80469 26.1719H9.625L12.9062 41.4844L9.29688 58H1.75ZM13.3984 53.3516L15.0391 45.8047H17.0078L11.2109 19.7188H18.8125L27.8359 58H20.1797L19.0859 53.3516H13.3984ZM30.9531 48.1016V29.6719C30.9531 27.5573 31.737 25.4974 33.3047 23.4922C35.3828 20.8307 38.1901 19.4818 41.7266 19.4453V27.1562C40.1953 27.1927 39.2109 27.9036 38.7734 29.2891C38.7005 29.4349 38.6641 29.5625 38.6641 29.6719V48.1016C38.6641 48.6849 38.974 49.25 39.5938 49.7969C40.1771 50.3073 40.888 50.5625 41.7266 50.5625V58.2734C37.6432 58.2734 34.5625 56.5599 32.4844 53.1328C31.4635 51.3828 30.9531 49.7057 30.9531 48.1016ZM44.6797 58.2734V50.5625C44.6797 50.5625 45.099 50.3984 45.9375 50.0703C46.4479 49.7057 46.7943 49.3229 46.9766 48.9219C47.1589 48.4479 47.25 47.7734 47.25 46.8984V46.2422L54.7969 48.0469C54.7969 51.2188 53.5208 53.8438 50.9688 55.9219C49.0365 57.4896 46.9401 58.2734 44.6797 58.2734ZM44.6797 27.1562V19.4453C47.3411 19.4453 49.7474 20.612 51.8984 22.9453C53.8307 25.0599 54.7969 27.3385 54.7969 29.7812L47.25 31.75V30.9297C47.25 30.0182 47.1589 29.3438 46.9766 28.9062C46.8307 28.5417 46.5573 28.2135 46.1562 27.9219C45.7917 27.6302 45.4635 27.4297 45.1719 27.3203L44.6797 27.1562ZM56.7109 27.2656V19.7188H80.3906V27.2656H72.4062V58H64.6953V27.2656H56.7109ZM83.5078 58V19.7188H91.2188V58H83.5078ZM93.9531 19.7188H101.828L110.523 49.3594L107.625 58H105.055L93.9531 19.7188ZM108.008 29.8906L111.016 19.7188H118.891C118.854 19.8281 116.612 27.3021 112.164 42.1406H111.617L108.008 29.8906ZM121.625 58V19.7188H141.531V27.375H129.336V35.1406H136.391V42.8516H129.336V50.2891H141.531V58H121.625Z" fill="#0E0E0E" fill-opacity="0.92"/>
        <path d="M51.104 84C50.576 84 50.088 83.872 49.64 83.616C49.208 83.36 48.864 83.016 48.608 82.584C48.352 82.136 48.224 81.648 48.224 81.12V80.448H50.168V81.12C50.168 81.376 50.256 81.6 50.432 81.792C50.624 81.968 50.848 82.056 51.104 82.056H62.624C62.88 82.056 63.096 81.968 63.272 81.792C63.464 81.6 63.56 81.376 63.56 81.12V77.256C63.56 77 63.464 76.784 63.272 76.608C63.096 76.432 62.88 76.344 62.624 76.344H51.104C50.576 76.344 50.088 76.216 49.64 75.96C49.208 75.688 48.864 75.336 48.608 74.904C48.352 74.472 48.224 73.992 48.224 73.464V69.6C48.224 69.072 48.352 68.592 48.608 68.16C48.864 67.712 49.208 67.36 49.64 67.104C50.088 66.848 50.576 66.72 51.104 66.72H62.624C63.152 66.72 63.632 66.848 64.064 67.104C64.512 67.36 64.864 67.712 65.12 68.16C65.376 68.592 65.504 69.072 65.504 69.6V70.272H63.56V69.6C63.56 69.344 63.464 69.128 63.272 68.952C63.096 68.76 62.88 68.664 62.624 68.664H51.104C50.848 68.664 50.624 68.76 50.432 68.952C50.256 69.128 50.168 69.344 50.168 69.6V73.464C50.168 73.72 50.256 73.936 50.432 74.112C50.624 74.288 50.848 74.376 51.104 74.376H62.624C63.152 74.376 63.632 74.512 64.064 74.784C64.512 75.04 64.864 75.384 65.12 75.816C65.376 76.248 65.504 76.728 65.504 77.256V81.12C65.504 81.648 65.376 82.136 65.12 82.584C64.864 83.016 64.512 83.36 64.064 83.616C63.632 83.872 63.152 84 62.624 84H51.104ZM68.0784 84V66.744H82.4784C83.0064 66.744 83.4864 66.88 83.9184 67.152C84.3664 67.408 84.7184 67.752 84.9744 68.184C85.2304 68.616 85.3584 69.096 85.3584 69.624V74.688C85.3584 75.216 85.2304 75.696 84.9744 76.128C84.7184 76.56 84.3664 76.912 83.9184 77.184C83.4864 77.44 83.0064 77.568 82.4784 77.568H70.0224V84H68.0784ZM70.9584 75.6H82.4784C82.7344 75.6 82.9504 75.512 83.1264 75.336C83.3184 75.16 83.4144 74.944 83.4144 74.688V69.624C83.4144 69.368 83.3184 69.152 83.1264 68.976C82.9504 68.784 82.7344 68.688 82.4784 68.688H70.9584C70.7024 68.688 70.4784 68.784 70.2864 68.976C70.1104 69.152 70.0224 69.368 70.0224 69.624V74.688C70.0224 74.944 70.1104 75.16 70.2864 75.336C70.4784 75.512 70.7024 75.6 70.9584 75.6ZM89.8948 84C89.3668 84 88.8788 83.872 88.4308 83.616C87.9988 83.36 87.6548 83.016 87.3988 82.584C87.1428 82.136 87.0148 81.648 87.0148 81.12V69.6C87.0148 69.072 87.1428 68.592 87.3988 68.16C87.6548 67.712 87.9988 67.36 88.4308 67.104C88.8788 66.848 89.3668 66.72 89.8948 66.72H101.415C101.943 66.72 102.423 66.848 102.855 67.104C103.303 67.36 103.655 67.712 103.911 68.16C104.167 68.592 104.295 69.072 104.295 69.6V81.12C104.295 81.648 104.167 82.136 103.911 82.584C103.655 83.016 103.303 83.36 102.855 83.616C102.423 83.872 101.943 84 101.415 84H89.8948ZM89.8948 82.056H101.415C101.671 82.056 101.887 81.968 102.063 81.792C102.255 81.6 102.351 81.376 102.351 81.12V69.6C102.351 69.344 102.255 69.128 102.063 68.952C101.887 68.76 101.671 68.664 101.415 68.664H89.8948C89.6388 68.664 89.4148 68.76 89.2228 68.952C89.0468 69.128 88.9588 69.344 88.9588 69.6V81.12C88.9588 81.376 89.0468 81.6 89.2228 81.792C89.4148 81.968 89.6388 82.056 89.8948 82.056ZM121.53 84L115.89 77.28H118.434L124.098 83.976V84H121.53ZM106.938 84V66.744H121.338C121.866 66.744 122.346 66.88 122.778 67.152C123.226 67.408 123.578 67.752 123.834 68.184C124.09 68.616 124.218 69.096 124.218 69.624V74.688C124.218 75.216 124.09 75.696 123.834 76.128C123.578 76.56 123.226 76.912 122.778 77.184C122.346 77.44 121.866 77.568 121.338 77.568H108.882V84H106.938ZM109.818 75.6H121.338C121.594 75.6 121.81 75.512 121.986 75.336C122.178 75.16 122.274 74.944 122.274 74.688V69.624C122.274 69.368 122.178 69.152 121.986 68.976C121.81 68.784 121.594 68.688 121.338 68.688H109.818C109.562 68.688 109.338 68.784 109.146 68.976C108.97 69.152 108.882 69.368 108.882 69.624V74.688C108.882 74.944 108.97 75.16 109.146 75.336C109.338 75.512 109.562 75.6 109.818 75.6ZM133.558 84V68.664H125.878V66.72H143.158V68.664H135.502V84H133.558Z" fill="#0E0E0E" fill-opacity="0.92"/>
    </symbol>

<!-- Download -->
    <symbol id="icon-download" width="24px" height="24px" viewBox="0 0 24 24" fill="none" xmlns="http://www.w3.org/2000/svg">
        <path d="M12 3V16M12 16L16 11.625M12 16L8 11.625" stroke="#00E276" stroke-width="1.5" stroke-linecap="round" stroke-linejoin="round"/>
        <path d="M15 21H9C6.17157 21 4.75736 21 3.87868 20.1213C3 19.2426 3 17.8284 3 15M21 15C21 17.8284 21 19.2426 20.1213 20.1213C19.8215 20.4211 19.4594 20.6186 19 20.7487" stroke="#00E276" stroke-width="1.5" stroke-linecap="round" stroke-linejoin="round"/>
    </symbol>

    <!-- Github -->
    <symbol id="icon-github" width="24px" height="24px" viewBox="0 0 24 24" fill="none" xmlns="http://www.w3.org/2000/svg">
        <path d="M4.0744 2.9938C4.13263 1.96371 4.37869 1.51577 5.08432 1.15606C5.84357 0.768899 7.04106 0.949072 8.45014 1.66261C9.05706 1.97009 9.11886 1.97635 10.1825 1.83998C11.5963 1.65865 13.4164 1.65929 14.7213 1.84164C15.7081 1.97954 15.7729 1.97265 16.3813 1.66453C18.3814 0.651679 19.9605 0.71795 20.5323 1.8387C20.8177 2.39812 20.8707 3.84971 20.6494 5.04695C20.5267 5.71069 20.5397 5.79356 20.8353 6.22912C22.915 9.29385 21.4165 14.2616 17.8528 16.1155C17.5801 16.2574 17.3503 16.3452 17.163 16.4167C16.5879 16.6363 16.4133 16.703 16.6247 17.7138C16.7265 18.2 16.8491 19.4088 16.8973 20.4002C16.9844 22.1922 16.9831 22.2047 16.6688 22.5703C16.241 23.0676 15.6244 23.076 15.2066 22.5902C14.9341 22.2734 14.9075 22.1238 14.9075 20.9015C14.9075 19.0952 14.7095 17.8946 14.2417 16.8658C13.6854 15.6415 14.0978 15.185 15.37 14.9114C17.1383 14.531 18.5194 13.4397 19.2892 11.8146C20.0211 10.2698 20.1314 8.13501 18.8082 6.83668C18.4319 6.3895 18.4057 5.98446 18.6744 4.76309C18.7748 4.3066 18.859 3.71768 18.8615 3.45425C18.8653 3.03823 18.8274 2.97541 18.5719 2.97541C18.4102 2.97541 17.7924 3.21062 17.1992 3.49805L16.2524 3.95695C16.1663 3.99866 16.07 4.0147 15.975 4.0038C13.5675 3.72746 11.2799 3.72319 8.86062 4.00488C8.76526 4.01598 8.66853 3.99994 8.58215 3.95802L7.63585 3.49882C7.04259 3.21087 6.42482 2.97541 6.26317 2.97541C5.88941 2.97541 5.88379 3.25135 6.22447 4.89078C6.43258 5.89203 6.57262 6.11513 5.97101 6.91572C5.06925 8.11576 4.844 9.60592 5.32757 11.1716C5.93704 13.1446 7.4295 14.4775 9.52773 14.9222C10.7926 15.1903 11.1232 15.5401 10.6402 16.9905C10.26 18.1319 10.0196 18.4261 9.46707 18.4261C8.72365 18.4261 8.25796 17.7821 8.51424 17.1082C8.62712 16.8112 8.59354 16.7795 7.89711 16.5255C5.77117 15.7504 4.14514 14.0131 3.40172 11.7223C2.82711 9.95184 3.07994 7.64739 4.00175 6.25453C4.31561 5.78028 4.32047 5.74006 4.174 4.83217C4.09113 4.31822 4.04631 3.49103 4.0744 2.9938Z" fill="#00E276"/>
        <path d="M3.33203 15.9454C3.02568 15.4859 2.40481 15.3617 1.94528 15.6681C1.48576 15.9744 1.36158 16.5953 1.66793 17.0548C1.8941 17.3941 2.16467 17.6728 2.39444 17.9025C2.4368 17.9449 2.47796 17.9858 2.51815 18.0257C2.71062 18.2169 2.88056 18.3857 3.05124 18.5861C3.42875 19.0292 3.80536 19.626 4.0194 20.6962C4.11474 21.1729 4.45739 21.4297 4.64725 21.5419C4.85315 21.6635 5.07812 21.7352 5.26325 21.7819C5.64196 21.8774 6.10169 21.927 6.53799 21.9559C7.01695 21.9877 7.53592 21.998 7.99999 22.0008C8.00033 22.5527 8.44791 23.0001 8.99998 23.0001C9.55227 23.0001 9.99998 22.5524 9.99998 22.0001V21.0001C9.99998 20.4478 9.55227 20.0001 8.99998 20.0001C8.90571 20.0001 8.80372 20.0004 8.69569 20.0008C8.10883 20.0026 7.34388 20.0049 6.67018 19.9603C6.34531 19.9388 6.07825 19.9083 5.88241 19.871C5.58083 18.6871 5.09362 17.8994 4.57373 17.2891C4.34391 17.0194 4.10593 16.7834 3.91236 16.5914C3.87612 16.5555 3.84144 16.5211 3.80865 16.4883C3.5853 16.265 3.4392 16.1062 3.33203 15.9454Z" fill="#00E276"/>
    </symbol>

    <!-- Linkedin -->
    <symbol width="32px" height="32px" viewBox="0 -0.5 25 25" fill="none" xmlns="http://www.w3.org/2000/svg">
        <path d="M8.75 11C8.75 10.5858 8.41421 10.25 8 10.25C7.58579 10.25 7.25 10.5858 7.25 11H8.75ZM7.25 17C7.25 17.4142 7.58579 17.75 8 17.75C8.41421 17.75 8.75 17.4142 8.75 17H7.25ZM17.25 17C17.25 17.4142 17.5858 17.75 18 17.75C18.4142 17.75 18.75 17.4142 18.75 17H17.25ZM12 14H11.25H12ZM11.25 17C11.25 17.4142 11.5858 17.75 12 17.75C12.4142 17.75 12.75 17.4142 12.75 17H11.25ZM8.75 8C8.75 7.58579 8.41421 7.25 8 7.25C7.58579 7.25 7.25 7.58579 7.25 8H8.75ZM7.25 9C7.25 9.41421 7.58579 9.75 8 9.75C8.41421 9.75 8.75 9.41421 8.75 9H7.25ZM7.25 11V17H8.75V11H7.25ZM18.75 17V14H17.25V17H18.75ZM18.75 14C18.75 11.9289 17.0711 10.25 15 10.25V11.75C16.2426 11.75 17.25 12.7574 17.25 14H18.75ZM15 10.25C12.9289 10.25 11.25 11.9289 11.25 14H12.75C12.75 12.7574 13.7574 11.75 15 11.75V10.25ZM11.25 14V17H12.75V14H11.25ZM7.25 8V9H8.75V8H7.25Z" fill="#00E276"/>
    </symbol>

    <symbol id="icon-linkedin" fill="#00E276" width="24px" height="24px" viewBox="-7.5 0 32 32" version="1.1" xmlns="http://www.w3.org/2000/svg">
        <path d="M0.92 11.32c-0.48 0-0.84 0.36-0.84 0.84v11.76c0 0.48 0.36 0.84 0.84 0.84s0.84-0.36 0.84-0.84v-11.76c0-0.48-0.36-0.84-0.84-0.84zM1.84 8.16c0 0.508-0.412 0.92-0.92 0.92s-0.92-0.412-0.92-0.92c0-0.508 0.412-0.92 0.92-0.92s0.92 0.412 0.92 0.92zM15.28 11.68c-1.8-0.96-4.44-0.28-8.040 2v-1.52c0-0.48-0.36-0.84-0.84-0.84s-0.84 0.36-0.84 0.84v11.76c0 0.48 0.36 0.84 0.84 0.84s0.84-0.36 0.84-0.84v-8.24c4.52-3.12 6.48-2.92 7.24-2.52 1.040 0.56 1.040 2.080 1.040 2.080v8.68c0 0.48 0.36 0.84 0.84 0.84s0.84-0.36 0.84-0.84v-8.64c0-0.12 0-2.56-1.92-3.6z" stroke="#00E276" stroke-width="1.5" stroke-linecap="round" stroke-linejoin="round"></path>
    </symbol>

    <!-- Instagram -->
    <symbol id="icon-instagram" width="24px" height="24px" viewBox="0 0 24 24" fill="none" xmlns="http://www.w3.org/2000/svg">
        <path d="M12 7.90001C11.1891 7.90001 10.3964 8.14048 9.72218 8.59099C9.04794 9.0415 8.52243 9.68184 8.21211 10.431C7.90179 11.1802 7.8206 12.0046 7.9788 12.7999C8.13699 13.5952 8.52748 14.3258 9.10088 14.8992C9.67427 15.4725 10.4048 15.863 11.2001 16.0212C11.9955 16.1794 12.8198 16.0982 13.569 15.7879C14.3182 15.4776 14.9585 14.9521 15.409 14.2779C15.8596 13.6036 16.1 12.8109 16.1 12C16.1013 11.4612 15.9962 10.9275 15.7906 10.4295C15.585 9.93142 15.2831 9.47892 14.9021 9.09794C14.5211 8.71695 14.0686 8.415 13.5706 8.20942C13.0725 8.00385 12.5388 7.8987 12 7.90001ZM12 14.67C11.4719 14.67 10.9557 14.5134 10.5166 14.22C10.0776 13.9267 9.73534 13.5097 9.53326 13.0218C9.33117 12.5339 9.2783 11.9971 9.38132 11.4791C9.48434 10.9612 9.73863 10.4854 10.112 10.112C10.4854 9.73863 10.9612 9.48434 11.4791 9.38132C11.9971 9.2783 12.5339 9.33117 13.0218 9.53326C13.5097 9.73534 13.9267 10.0776 14.22 10.5166C14.5134 10.9557 14.67 11.4719 14.67 12C14.67 12.7081 14.3887 13.3873 13.888 13.888C13.3873 14.3887 12.7081 14.67 12 14.67ZM17.23 7.73001C17.23 7.9278 17.1714 8.12114 17.0615 8.28558C16.9516 8.45003 16.7954 8.57821 16.6127 8.65389C16.43 8.72958 16.2289 8.74938 16.0349 8.7108C15.8409 8.67221 15.6628 8.57697 15.5229 8.43712C15.3831 8.29727 15.2878 8.11909 15.2492 7.92511C15.2106 7.73112 15.2304 7.53006 15.3061 7.34733C15.3818 7.16461 15.51 7.00843 15.6744 6.89855C15.8389 6.78866 16.0322 6.73001 16.23 6.73001C16.4952 6.73001 16.7496 6.83537 16.9371 7.02291C17.1247 7.21044 17.23 7.4648 17.23 7.73001ZM19.94 8.73001C19.9691 7.48684 19.5054 6.28261 18.65 5.38001C17.7522 4.5137 16.5474 4.03897 15.3 4.06001C14 4.00001 10 4.00001 8.70001 4.06001C7.45722 4.0331 6.25379 4.49652 5.35001 5.35001C4.49465 6.25261 4.03093 7.45684 4.06001 8.70001C4.00001 10 4.00001 14 4.06001 15.3C4.03093 16.5432 4.49465 17.7474 5.35001 18.65C6.25379 19.5035 7.45722 19.9669 8.70001 19.94C10.02 20.02 13.98 20.02 15.3 19.94C16.5432 19.9691 17.7474 19.5054 18.65 18.65C19.5054 17.7474 19.9691 16.5432 19.94 15.3C20 14 20 10 19.94 8.70001V8.73001ZM18.24 16.73C18.1042 17.074 17.8993 17.3863 17.6378 17.6478C17.3763 17.9093 17.064 18.1142 16.72 18.25C15.1676 18.5639 13.5806 18.6715 12 18.57C10.4228 18.6716 8.83902 18.564 7.29001 18.25C6.94608 18.1142 6.63369 17.9093 6.37223 17.6478C6.11076 17.3863 5.90579 17.074 5.77001 16.73C5.35001 15.67 5.44001 13.17 5.44001 12.01C5.44001 10.85 5.35001 8.34001 5.77001 7.29001C5.90196 6.94268 6.10547 6.62698 6.36733 6.36339C6.62919 6.09981 6.94355 5.89423 7.29001 5.76001C8.83902 5.44599 10.4228 5.33839 12 5.44001C13.5806 5.33856 15.1676 5.44616 16.72 5.76001C17.064 5.89579 17.3763 6.10076 17.6378 6.36223C17.8993 6.62369 18.1042 6.93608 18.24 7.28001C18.66 8.34001 18.56 10.84 18.56 12C18.56 13.16 18.66 15.67 18.24 16.72V16.73Z" fill="#00E276"/>
    </symbol>

    <!-- Twitter -->
    <symbol id="icon-twitter" width="24px" height="24px" viewBox="0 0 192 192" xmlns="http://www.w3.org/2000/svg" fill="none">
        <path stroke="#00E276" stroke-linejoin="round" stroke-width="12" d="M126 38c-14.359 0-26 11.64-26 26a25.89 25.89 0 0 0 2.929 12C72 76 56 70 30 46c0 39.5 10 66 34 81-8 11.2-29.333 14.333-42 14.5 0 0 14 13.5 46 13.5 56 0 84-46.783 84-91l18-20h-27.386A25.892 25.892 0 0 0 126 38Z"/>
    </symbol>

    <!-- Phone -->
    <symbol id="icon-phone" width="35px" height="35px" viewBox="0 0 24 24" fill="none" xmlns="http://www.w3.org/2000/svg">
        <path d="M3 5.5C3 14.0604 9.93959 21 18.5 21C18.8862 21 19.2691 20.9859 19.6483 20.9581C20.0834 20.9262 20.3009 20.9103 20.499 20.7963C20.663 20.7019 20.8185 20.5345 20.9007 20.364C21 20.1582 21 19.9181 21 19.438V16.6207C21 16.2169 21 16.015 20.9335 15.842C20.8749 15.6891 20.7795 15.553 20.6559 15.4456C20.516 15.324 20.3262 15.255 19.9468 15.117L16.74 13.9509C16.2985 13.7904 16.0777 13.7101 15.8683 13.7237C15.6836 13.7357 15.5059 13.7988 15.3549 13.9058C15.1837 14.0271 15.0629 14.2285 14.8212 14.6314L14 16C11.3501 14.7999 9.2019 12.6489 8 10L9.36863 9.17882C9.77145 8.93713 9.97286 8.81628 10.0942 8.64506C10.2012 8.49408 10.2643 8.31637 10.2763 8.1317C10.2899 7.92227 10.2096 7.70153 10.0491 7.26005L8.88299 4.05321C8.745 3.67376 8.67601 3.48403 8.55442 3.3441C8.44701 3.22049 8.31089 3.12515 8.15802 3.06645C7.98496 3 7.78308 3 7.37932 3H4.56201C4.08188 3 3.84181 3 3.63598 3.09925C3.4655 3.18146 3.29814 3.33701 3.2037 3.50103C3.08968 3.69907 3.07375 3.91662 3.04189 4.35173C3.01413 4.73086 3 5.11378 3 5.5Z" stroke="#00E276" stroke-width="2" stroke-linecap="round" stroke-linejoin="round"/>
    </symbol>

    <!-- Mail -->
    <symbol id="icon-mail" class="w-6 h-6 text-gray-800 dark:text-white" aria-hidden="true" xmlns="http://www.w3.org/2000/svg" width="35" height="35" fill="none" viewBox="0 0 24 24">
        <path stroke="#00E276" stroke-linecap="round" stroke-width="2" d="m3.5 5.5 7.893 6.036a1 1 0 0 0 1.214 0L20.5 5.5M4 19h16a1 1 0 0 0 1-1V6a1 1 0 0 0-1-1H4a1 1 0 0 0-1 1v12a1 1 0 0 0 1 1Z"/>
    </symbol>

    <!-- Location -->
    <svg id="icon-location" class="w-6 h-6 text-gray-800 dark:text-white" aria-hidden="true" xmlns="http://www.w3.org/2000/svg" width="35" height="35" fill="#00E276" viewBox="0 0 24 24">
        <path fill-rule="evenodd" d="M11.906 1.994a8.002 8.002 0 0 1 8.09 8.421 7.996 7.996 0 0 1-1.297 3.957.996.996 0 0 1-.133.204l-.108.129c-.178.243-.37.477-.573.699l-5.112 6.224a1 1 0 0 1-1.545 0L5.982 15.26l-.002-.002a18.146 18.146 0 0 1-.309-.38l-.133-.163a.999.999 0 0 1-.13-.202 7.995 7.995 0 0 1 6.498-12.518ZM15 9.997a3 3 0 1 1-5.999 0 3 3 0 0 1 5.999 0Z" clip-rule="evenodd"/>
    </svg>

</svg>